<svg xmlns="http://www.w3.org/2000/svg" xmlns:xlink="http://www.w3.org/1999/xlink" width="575" zoomAndPan="magnify" viewBox="0 0 431.25 78.749999" height="105" preserveAspectRatio="xMidYMid meet" version="1.0"><defs><clipPath id="f16ab3206b"><path d="M 2.761719 2.453125 L 427.503906 2.453125 L 427.503906 76 L 2.761719 76 Z M 2.761719 2.453125 " clip-rule="nonzero"/></clipPath><clipPath id="521ccc8aad"><path d="M 351.730469 3.257812 L 336.898438 3.257812 L 336.898438 75.894531 L 351.730469 75.894531 Z M 309.273438 3.257812 L 290.347656 3.257812 L 290.347656 75.894531 L 304.671875 75.894531 L 304.671875 26.277344 L 316.433594 47.761719 L 333.316406 47.761719 Z M 117.707031 3.257812 L 79.085938 3.257812 L 79.085938 75.894531 L 93.917969 75.894531 L 93.917969 17.582031 L 115.148438 17.582031 C 121.117188 17.582031 124.144531 27.890625 118.652344 31.316406 C 118.335938 31.515625 116.304688 32.414062 116.171875 32.414062 L 96.988281 32.414062 L 103.378906 46.742188 L 110.554688 47.75 L 123.847656 75.890625 L 139.445312 75.890625 L 125.609375 44.476562 C 142.640625 34.988281 137.789062 5.375 117.707031 3.257812 M 427.4375 75.894531 L 402.90625 2.976562 C 402.253906 2.542969 388.941406 2.507812 387.253906 2.714844 C 386.6875 2.789062 386.117188 2.683594 385.738281 3.25 L 361.449219 75.894531 L 376.796875 75.894531 L 394.445312 23.714844 L 412.09375 75.894531 Z M 280.117188 75.894531 L 256.027344 3.554688 C 255.660156 2.765625 255.046875 2.796875 254.308594 2.714844 C 249.710938 2.183594 244.152344 3.195312 239.429688 2.710938 L 214.128906 75.894531 L 229.21875 75.894531 L 246.871094 23.71875 L 265.539062 75.894531 Z M 204.410156 2.746094 C 189.433594 3.4375 172.714844 0.0195312 159.53125 8.769531 C 136.785156 23.867188 139.804688 63.359375 165.6875 73.433594 C 167.347656 74.078125 173.519531 75.894531 174.992188 75.894531 L 204.410156 75.894531 L 204.410156 61.574219 L 178.578125 61.574219 C 160.285156 61.574219 152.554688 36.578125 164.515625 23.980469 C 167.292969 21.054688 174.054688 17.582031 178.066406 17.582031 L 204.410156 17.582031 Z M 2.867188 75.894531 L 18.722656 75.894531 L 36.371094 23.714844 L 54.019531 75.894531 L 69.367188 75.894531 L 44.066406 2.710938 L 27.472656 2.796875 Z M 2.867188 75.894531 " clip-rule="nonzero"/></clipPath><clipPath id="85b384cafd"><path d="M 0.761719 0.453125 L 425.503906 0.453125 L 425.503906 74 L 0.761719 74 Z M 0.761719 0.453125 " clip-rule="nonzero"/></clipPath><clipPath id="580394780c"><path d="M 349.730469 1.257812 L 334.898438 1.257812 L 334.898438 73.894531 L 349.730469 73.894531 Z M 307.273438 1.257812 L 288.347656 1.257812 L 288.347656 73.894531 L 302.671875 73.894531 L 302.671875 24.277344 L 314.433594 45.761719 L 331.316406 45.761719 Z M 115.707031 1.257812 L 77.085938 1.257812 L 77.085938 73.894531 L 91.917969 73.894531 L 91.917969 15.582031 L 113.148438 15.582031 C 119.117188 15.582031 122.144531 25.890625 116.652344 29.316406 C 116.335938 29.515625 114.304688 30.414062 114.171875 30.414062 L 94.988281 30.414062 L 101.378906 44.742188 L 108.554688 45.75 L 121.847656 73.890625 L 137.445312 73.890625 L 123.609375 42.476562 C 140.640625 32.988281 135.789062 3.375 115.707031 1.257812 M 425.4375 73.894531 L 400.90625 0.976562 C 400.253906 0.542969 386.941406 0.507812 385.253906 0.714844 C 384.6875 0.789062 384.117188 0.683594 383.738281 1.25 L 359.449219 73.894531 L 374.796875 73.894531 L 392.445312 21.714844 L 410.09375 73.894531 Z M 278.117188 73.894531 L 254.027344 1.554688 C 253.660156 0.765625 253.046875 0.796875 252.308594 0.714844 C 247.710938 0.183594 242.152344 1.195312 237.429688 0.710938 L 212.128906 73.894531 L 227.21875 73.894531 L 244.871094 21.71875 L 263.539062 73.894531 Z M 202.410156 0.746094 C 187.433594 1.4375 170.714844 -1.980469 157.53125 6.769531 C 134.785156 21.867188 137.804688 61.359375 163.6875 71.433594 C 165.347656 72.078125 171.519531 73.894531 172.992188 73.894531 L 202.410156 73.894531 L 202.410156 59.574219 L 176.578125 59.574219 C 158.285156 59.574219 150.554688 34.578125 162.515625 21.980469 C 165.292969 19.054688 172.054688 15.582031 176.066406 15.582031 L 202.410156 15.582031 Z M 0.867188 73.894531 L 16.722656 73.894531 L 34.371094 21.714844 L 52.019531 73.894531 L 67.367188 73.894531 L 42.066406 0.710938 L 25.472656 0.796875 Z M 0.867188 73.894531 " clip-rule="nonzero"/></clipPath><clipPath id="cff4a654bd"><rect x="0" width="426" y="0" height="74"/></clipPath><clipPath id="f0b61d3fb2"><path d="M 79.066406 3.066406 L 139.746094 3.066406 L 139.746094 76 L 79.066406 76 Z M 79.066406 3.066406 " clip-rule="nonzero"/></clipPath><clipPath id="77c86e69b7"><path d="M 117.707031 3.257812 C 137.789062 5.382812 142.640625 34.992188 125.609375 44.476562 L 139.445312 75.894531 L 123.84375 75.894531 L 110.550781 47.75 L 103.371094 46.742188 L 96.988281 32.414062 L 116.171875 32.414062 C 116.308594 32.414062 118.335938 31.515625 118.652344 31.316406 C 124.144531 27.890625 121.117188 17.582031 115.148438 17.582031 L 93.917969 17.582031 L 93.917969 75.894531 L 79.085938 75.894531 L 79.085938 3.257812 Z M 117.707031 3.257812 " clip-rule="nonzero"/></clipPath><clipPath id="9fd57dc081"><path d="M 0.0664062 0.109375 L 60.746094 0.109375 L 60.746094 73 L 0.0664062 73 Z M 0.0664062 0.109375 " clip-rule="nonzero"/></clipPath><clipPath id="da6efe6811"><path d="M 38.707031 0.257812 C 58.789062 2.382812 63.640625 31.992188 46.609375 41.476562 L 60.445312 72.894531 L 44.84375 72.894531 L 31.550781 44.75 L 24.371094 43.742188 L 17.988281 29.414062 L 37.171875 29.414062 C 37.308594 29.414062 39.335938 28.515625 39.652344 28.316406 C 45.144531 24.890625 42.117188 14.582031 36.148438 14.582031 L 14.917969 14.582031 L 14.917969 72.894531 L 0.0859375 72.894531 L 0.0859375 0.257812 Z M 38.707031 0.257812 " clip-rule="nonzero"/></clipPath><clipPath id="458df415e5"><rect x="0" width="61" y="0" height="73"/></clipPath><clipPath id="7bd608d6f2"><path d="M 361.308594 2.453125 L 427.503906 2.453125 L 427.503906 76 L 361.308594 76 Z M 361.308594 2.453125 " clip-rule="nonzero"/></clipPath><clipPath id="89eea250b7"><path d="M 427.4375 75.894531 L 412.09375 75.894531 L 394.445312 23.714844 L 376.796875 75.894531 L 361.449219 75.894531 L 385.738281 3.25 C 386.117188 2.683594 386.6875 2.78125 387.253906 2.714844 C 388.941406 2.507812 402.25 2.542969 402.90625 2.976562 Z M 427.4375 75.894531 " clip-rule="nonzero"/></clipPath><clipPath id="e708c21d1b"><path d="M 0.324219 0.453125 L 66.503906 0.453125 L 66.503906 74 L 0.324219 74 Z M 0.324219 0.453125 " clip-rule="nonzero"/></clipPath><clipPath id="6fc3ad7fe0"><path d="M 66.4375 73.894531 L 51.09375 73.894531 L 33.445312 21.714844 L 15.796875 73.894531 L 0.449219 73.894531 L 24.738281 1.25 C 25.117188 0.683594 25.6875 0.78125 26.253906 0.714844 C 27.941406 0.507812 41.25 0.542969 41.90625 0.976562 Z M 66.4375 73.894531 " clip-rule="nonzero"/></clipPath><clipPath id="b9b7b1d606"><rect x="0" width="67" y="0" height="74"/></clipPath><clipPath id="ad2b569467"><path d="M 214 2.453125 L 280.40625 2.453125 L 280.40625 76 L 214 76 Z M 214 2.453125 " clip-rule="nonzero"/></clipPath><clipPath id="38041a3ec6"><path d="M 280.117188 75.894531 L 265.539062 75.894531 L 246.871094 23.71875 L 229.21875 75.894531 L 214.128906 75.894531 L 239.429688 2.710938 C 244.152344 3.195312 249.710938 2.1875 254.316406 2.714844 C 255.046875 2.804688 255.660156 2.765625 256.035156 3.554688 Z M 280.117188 75.894531 " clip-rule="nonzero"/></clipPath><clipPath id="6be6348292"><path d="M 0 0.453125 L 66.21875 0.453125 L 66.21875 74 L 0 74 Z M 0 0.453125 " clip-rule="nonzero"/></clipPath><clipPath id="65ee426fed"><path d="M 66.117188 73.894531 L 51.539062 73.894531 L 32.871094 21.71875 L 15.21875 73.894531 L 0.128906 73.894531 L 25.429688 0.710938 C 30.152344 1.195312 35.710938 0.1875 40.316406 0.714844 C 41.046875 0.804688 41.660156 0.765625 42.035156 1.554688 Z M 66.117188 73.894531 " clip-rule="nonzero"/></clipPath><clipPath id="753c385e00"><rect x="0" width="67" y="0" height="74"/></clipPath><clipPath id="4438c94561"><path d="M 2.761719 2.453125 L 69.566406 2.453125 L 69.566406 76 L 2.761719 76 Z M 2.761719 2.453125 " clip-rule="nonzero"/></clipPath><clipPath id="eb4dcbfb44"><path d="M 2.867188 75.894531 L 27.472656 2.796875 L 44.066406 2.710938 L 69.367188 75.894531 L 54.019531 75.894531 L 36.371094 23.714844 L 18.722656 75.894531 Z M 2.867188 75.894531 " clip-rule="nonzero"/></clipPath><clipPath id="c5f7c1155c"><path d="M 0.761719 0.632812 L 67.449219 0.632812 L 67.449219 74 L 0.761719 74 Z M 0.761719 0.632812 " clip-rule="nonzero"/></clipPath><clipPath id="bd10c0e7a5"><path d="M 0.867188 73.894531 L 25.472656 0.796875 L 42.066406 0.710938 L 67.367188 73.894531 L 52.019531 73.894531 L 34.371094 21.714844 L 16.722656 73.894531 Z M 0.867188 73.894531 " clip-rule="nonzero"/></clipPath><clipPath id="0019ed36eb"><rect x="0" width="68" y="0" height="74"/></clipPath><clipPath id="fb5777773d"><path d="M 144.035156 2.453125 L 204.710938 2.453125 L 204.710938 76 L 144.035156 76 Z M 144.035156 2.453125 " clip-rule="nonzero"/></clipPath><clipPath id="b4ef18e74b"><path d="M 204.410156 2.746094 L 204.410156 17.582031 L 178.066406 17.582031 C 174.050781 17.582031 167.289062 21.054688 164.515625 23.980469 C 152.554688 36.578125 160.289062 61.574219 178.578125 61.574219 L 204.410156 61.574219 L 204.410156 75.894531 L 174.996094 75.894531 C 173.519531 75.894531 167.355469 74.085938 165.691406 73.433594 C 139.808594 63.363281 136.789062 23.867188 159.539062 8.769531 C 172.714844 0.0195312 189.433594 3.4375 204.410156 2.746094 " clip-rule="nonzero"/></clipPath><clipPath id="0185fb2bc6"><path d="M 0.0351562 0.453125 L 60.621094 0.453125 L 60.621094 74 L 0.0351562 74 Z M 0.0351562 0.453125 " clip-rule="nonzero"/></clipPath><clipPath id="fd4b414fc5"><path d="M 60.410156 0.746094 L 60.410156 15.582031 L 34.066406 15.582031 C 30.050781 15.582031 23.289062 19.054688 20.515625 21.980469 C 8.554688 34.578125 16.289062 59.574219 34.578125 59.574219 L 60.410156 59.574219 L 60.410156 73.894531 L 30.996094 73.894531 C 29.519531 73.894531 23.355469 72.085938 21.691406 71.433594 C -4.191406 61.363281 -7.210938 21.867188 15.539062 6.769531 C 28.714844 -1.980469 45.433594 1.4375 60.410156 0.746094 " clip-rule="nonzero"/></clipPath><clipPath id="6f72af56a5"><rect x="0" width="61" y="0" height="74"/></clipPath><clipPath id="e98d982201"><path d="M 290.210938 3.066406 L 333.421875 3.066406 L 333.421875 76 L 290.210938 76 Z M 290.210938 3.066406 " clip-rule="nonzero"/></clipPath><clipPath id="56248d0b9b"><path d="M 309.273438 3.257812 L 333.316406 47.761719 L 316.433594 47.761719 L 304.671875 26.277344 L 304.671875 75.894531 L 290.347656 75.894531 L 290.347656 3.257812 Z M 309.273438 3.257812 " clip-rule="nonzero"/></clipPath><clipPath id="81414149c8"><path d="M 0.269531 0.109375 L 43.332031 0.109375 L 43.332031 73 L 0.269531 73 Z M 0.269531 0.109375 " clip-rule="nonzero"/></clipPath><clipPath id="128182a8d3"><path d="M 19.273438 0.257812 L 43.316406 44.761719 L 26.433594 44.761719 L 14.671875 23.277344 L 14.671875 72.894531 L 0.347656 72.894531 L 0.347656 0.257812 Z M 19.273438 0.257812 " clip-rule="nonzero"/></clipPath><clipPath id="1f4bee3282"><rect x="0" width="44" y="0" height="73"/></clipPath><clipPath id="d7cd42f191"><path d="M 336.898438 3.257812 L 351.730469 3.257812 L 351.730469 75.894531 L 336.898438 75.894531 Z M 336.898438 3.257812 " clip-rule="nonzero"/></clipPath><clipPath id="4d4a28fe3f"><path d="M 0.898438 0.257812 L 15.730469 0.257812 L 15.730469 72.894531 L 0.898438 72.894531 Z M 0.898438 0.257812 " clip-rule="nonzero"/></clipPath><clipPath id="469259b1d0"><rect x="0" width="16" y="0" height="73"/></clipPath></defs><g clip-path="url(#f16ab3206b)"><g clip-path="url(#521ccc8aad)"><g transform="matrix(1, 0, 0, 1, 2, 2)"><g clip-path="url(#cff4a654bd)"><g clip-path="url(#85b384cafd)"><g clip-path="url(#580394780c)"><rect x="-96.875" width="621" fill="#ffffff" height="113.399999" y="-19.325" fill-opacity="1"/></g></g></g></g></g></g><g clip-path="url(#f0b61d3fb2)"><g clip-path="url(#77c86e69b7)"><g transform="matrix(1, 0, 0, 1, 79, 3)"><g clip-path="url(#458df415e5)"><g clip-path="url(#9fd57dc081)"><g clip-path="url(#da6efe6811)"><rect x="-173.875" width="621" fill="#ffffff" height="113.399999" y="-20.325" fill-opacity="1"/></g></g></g></g></g></g><g clip-path="url(#7bd608d6f2)"><g clip-path="url(#89eea250b7)"><g transform="matrix(1, 0, 0, 1, 361, 2)"><g clip-path="url(#b9b7b1d606)"><g clip-path="url(#e708c21d1b)"><g clip-path="url(#6fc3ad7fe0)"><rect x="-455.875" width="621" fill="#ffffff" height="113.399999" y="-19.325" fill-opacity="1"/></g></g></g></g></g></g><g clip-path="url(#ad2b569467)"><g clip-path="url(#38041a3ec6)"><g transform="matrix(1, 0, 0, 1, 214, 2)"><g clip-path="url(#753c385e00)"><g clip-path="url(#6be6348292)"><g clip-path="url(#65ee426fed)"><rect x="-308.875" width="621" fill="#ffffff" height="113.399999" y="-19.325" fill-opacity="1"/></g></g></g></g></g></g><g clip-path="url(#4438c94561)"><g clip-path="url(#eb4dcbfb44)"><g transform="matrix(1, 0, 0, 1, 2, 2)"><g clip-path="url(#0019ed36eb)"><g clip-path="url(#c5f7c1155c)"><g clip-path="url(#bd10c0e7a5)"><rect x="-96.875" width="621" fill="#ffffff" height="113.399999" y="-19.325" fill-opacity="1"/></g></g></g></g></g></g><g clip-path="url(#fb5777773d)"><g clip-path="url(#b4ef18e74b)"><g transform="matrix(1, 0, 0, 1, 144, 2)"><g clip-path="url(#6f72af56a5)"><g clip-path="url(#0185fb2bc6)"><g clip-path="url(#fd4b414fc5)"><rect x="-238.875" width="621" fill="#ffffff" height="113.399999" y="-19.325" fill-opacity="1"/></g></g></g></g></g></g><g clip-path="url(#e98d982201)"><g clip-path="url(#56248d0b9b)"><g transform="matrix(1, 0, 0, 1, 290, 3)"><g clip-path="url(#1f4bee3282)"><g clip-path="url(#81414149c8)"><g clip-path="url(#128182a8d3)"><rect x="-384.875" width="621" fill="#ffffff" height="113.399999" y="-20.325" fill-opacity="1"/></g></g></g></g></g></g><g clip-path="url(#d7cd42f191)"><g transform="matrix(1, 0, 0, 1, 336, 3)"><g clip-path="url(#469259b1d0)"><g clip-path="url(#4d4a28fe3f)"><rect x="-430.875" width="621" fill="#ffffff" height="113.399999" y="-20.325" fill-opacity="1"/></g></g></g></g></svg>