<svg xmlns="http://www.w3.org/2000/svg" xmlns:xlink="http://www.w3.org/1999/xlink" width="136" zoomAndPan="magnify" viewBox="0 0 102 132.749998" height="177" preserveAspectRatio="xMidYMid meet" version="1.0"><defs><clipPath id="d156962ae7"><path d="M 2.078125 1.980469 L 99.585938 1.980469 L 99.585938 130.40625 L 2.078125 130.40625 Z M 2.078125 1.980469 " clip-rule="nonzero"/></clipPath><clipPath id="b7b72de3dd"><path d="M 35.652344 69.523438 L 35.652344 117.640625 L 87.167969 117.640625 L 87.167969 89.886719 L 50.949219 55.789062 C 50.253906 55.605469 47.246094 58.425781 46.433594 59.136719 C 42.667969 62.410156 39.261719 66.089844 35.652344 69.523438 M 88.167969 44.953125 L 88.167969 44.996094 C 84.453125 44.988281 80.738281 44.980469 77.023438 44.972656 C 77.816406 38.472656 78.570312 31.652344 76.15625 25.5625 C 72.570312 16.519531 61.992188 11.203125 52.394531 12.734375 C 46.046875 13.75 40.054688 17.589844 37.117188 23.304688 C 32.484375 32.328125 36.082031 43.277344 34.84375 53.34375 C 40.183594 48.335938 45.519531 43.328125 50.859375 38.320312 L 97.171875 83.007812 C 98.007812 83.8125 98.871094 84.660156 99.265625 85.75 C 99.574219 86.589844 99.574219 87.507812 99.574219 88.402344 C 99.558594 102.273438 99.550781 116.144531 99.539062 130.015625 L 25.535156 130.023438 C 24.863281 130.023438 24.109375 129.984375 23.664062 129.484375 C 23.285156 129.054688 23.265625 128.425781 23.265625 127.855469 C 23.269531 112.335938 23.273438 96.820312 23.277344 81.300781 C 21.136719 83.277344 19 85.25 16.859375 87.230469 C 16.160156 87.875 15.441406 88.542969 15.015625 89.394531 C 14.457031 90.503906 14.449219 91.792969 14.449219 93.035156 L 14.5 130.015625 C 10.371094 130.015625 6.242188 130.015625 2.113281 130.015625 C 2.105469 115.949219 2.097656 101.886719 2.09375 87.824219 C 2.09375 86.828125 2.097656 85.804688 2.476562 84.878906 C 2.890625 83.863281 3.71875 83.078125 4.519531 82.328125 C 10.011719 77.195312 15.5 72.0625 20.988281 66.925781 C 21.84375 66.128906 22.71875 65.296875 23.207031 64.234375 C 23.585938 63.394531 23.699219 62.464844 23.789062 61.546875 C 24.671875 52.234375 23.300781 42.824219 23.996094 33.496094 C 25.53125 12.890625 42.917969 -1.882812 63.929688 2.894531 C 73.621094 5.101562 82.238281 12.070312 85.875 21.316406 C 88.796875 28.738281 88.507812 36.980469 88.167969 44.945312 " clip-rule="nonzero"/></clipPath><clipPath id="87d5d29993"><path d="M 0.078125 0.980469 L 97.585938 0.980469 L 97.585938 129.074219 L 0.078125 129.074219 Z M 0.078125 0.980469 " clip-rule="nonzero"/></clipPath><clipPath id="ce00f109f9"><path d="M 33.652344 68.523438 L 33.652344 116.640625 L 85.167969 116.640625 L 85.167969 88.886719 L 48.949219 54.789062 C 48.253906 54.605469 45.246094 57.425781 44.433594 58.136719 C 40.667969 61.410156 37.261719 65.089844 33.652344 68.523438 M 86.167969 43.953125 L 86.167969 43.996094 C 82.453125 43.988281 78.738281 43.980469 75.023438 43.972656 C 75.816406 37.472656 76.570312 30.652344 74.15625 24.5625 C 70.570312 15.519531 59.992188 10.203125 50.394531 11.734375 C 44.046875 12.75 38.054688 16.589844 35.117188 22.304688 C 30.484375 31.328125 34.082031 42.277344 32.84375 52.34375 C 38.183594 47.335938 43.519531 42.328125 48.859375 37.320312 L 95.171875 82.007812 C 96.007812 82.8125 96.871094 83.660156 97.265625 84.75 C 97.574219 85.589844 97.574219 86.507812 97.574219 87.402344 C 97.558594 101.273438 97.550781 115.144531 97.539062 129.015625 L 23.535156 129.023438 C 22.863281 129.023438 22.109375 128.984375 21.664062 128.484375 C 21.285156 128.054688 21.265625 127.425781 21.265625 126.855469 C 21.269531 111.335938 21.273438 95.820312 21.277344 80.300781 C 19.136719 82.277344 17 84.25 14.859375 86.230469 C 14.160156 86.875 13.441406 87.542969 13.015625 88.394531 C 12.457031 89.503906 12.449219 90.792969 12.449219 92.035156 L 12.5 129.015625 C 8.371094 129.015625 4.242188 129.015625 0.113281 129.015625 C 0.105469 114.949219 0.0976562 100.886719 0.09375 86.824219 C 0.09375 85.828125 0.0976562 84.804688 0.476562 83.878906 C 0.890625 82.863281 1.71875 82.078125 2.519531 81.328125 C 8.011719 76.195312 13.5 71.0625 18.988281 65.925781 C 19.84375 65.128906 20.71875 64.296875 21.207031 63.234375 C 21.585938 62.394531 21.699219 61.464844 21.789062 60.546875 C 22.671875 51.234375 21.300781 41.824219 21.996094 32.496094 C 23.53125 11.890625 40.917969 -2.882812 61.929688 1.894531 C 71.621094 4.101562 80.238281 11.070312 83.875 20.316406 C 86.796875 27.738281 86.507812 35.980469 86.167969 43.945312 " clip-rule="nonzero"/></clipPath><clipPath id="88d774ba12"><rect x="0" width="98" y="0" height="130"/></clipPath><clipPath id="3cae33875a"><path d="M 63 94 L 80.558594 94 L 80.558594 112 L 63 112 Z M 63 94 " clip-rule="nonzero"/></clipPath><clipPath id="40fb26ce04"><path d="M 63.058594 111.890625 C 70.660156 111.941406 77.378906 107.054688 79.449219 99.4375 C 79.753906 98.328125 80.273438 95.960938 80.144531 94.867188 C 80.050781 94.074219 79.421875 94.183594 78.8125 94.207031 C 76.632812 94.28125 73.941406 95.175781 72.003906 96.203125 C 66.351562 99.207031 62.996094 105.324219 63.058594 111.890625 " clip-rule="nonzero"/></clipPath><clipPath id="d9a9809d12"><path d="M 0 0 L 17.34375 0 L 17.34375 18 L 0 18 Z M 0 0 " clip-rule="nonzero"/></clipPath><clipPath id="1fa0d1408a"><path d="M 0.0585938 17.890625 C 7.660156 17.941406 14.378906 13.054688 16.449219 5.4375 C 16.753906 4.328125 17.273438 1.960938 17.144531 0.867188 C 17.050781 0.0742188 16.421875 0.183594 15.8125 0.207031 C 13.632812 0.28125 10.941406 1.175781 9.003906 2.203125 C 3.351562 5.207031 -0.00390625 11.324219 0.0585938 17.890625 " clip-rule="nonzero"/></clipPath><clipPath id="6b45d551dc"><rect x="0" width="18" y="0" height="18"/></clipPath></defs><g clip-path="url(#d156962ae7)"><g clip-path="url(#b7b72de3dd)"><g transform="matrix(1, 0, 0, 1, 2, 1)"><g clip-path="url(#88d774ba12)"><g clip-path="url(#87d5d29993)"><g clip-path="url(#ce00f109f9)"><rect x="-24.44" width="146.88" fill="#ffffff" height="191.159997" y="-30.205" fill-opacity="1"/></g></g></g></g></g></g><g clip-path="url(#3cae33875a)"><g clip-path="url(#40fb26ce04)"><g transform="matrix(1, 0, 0, 1, 63, 94)"><g clip-path="url(#6b45d551dc)"><g clip-path="url(#d9a9809d12)"><g clip-path="url(#1fa0d1408a)"><rect x="-85.44" width="146.88" fill="#ffffff" height="191.159997" y="-123.205" fill-opacity="1"/></g></g></g></g></g></g></svg>